<svg xmlns="http://www.w3.org/2000/svg" viewBox="0 0 512 512">
  <defs>
    <linearGradient id="bg8" x1="0%" y1="0%" x2="100%" y2="100%">
      <stop offset="0%" stop-color="#0f0c29"/>
      <stop offset="100%" stop-color="#1a1040"/>
    </linearGradient>
  </defs>
  <rect width="512" height="512" rx="108" fill="url(#bg8)"/>
  <!-- Pixel grid overlay -->
  <g opacity="0.03">
    <rect x="0" y="0" width="512" height="512" fill="url(#bg8)"/>
  </g>
  <!-- Pixel art open book -->
  <!-- Book base pixels (32px grid) -->
  <g fill="#8b5cf6">
    <!-- Left cover -->
    <rect x="96" y="192" width="32" height="32"/><rect x="96" y="224" width="32" height="32"/>
    <rect x="96" y="256" width="32" height="32"/><rect x="96" y="288" width="32" height="32"/>
    <rect x="128" y="160" width="32" height="32"/><rect x="128" y="320" width="32" height="32"/>
    <!-- Right cover -->
    <rect x="384" y="192" width="32" height="32"/><rect x="384" y="224" width="32" height="32"/>
    <rect x="384" y="256" width="32" height="32"/><rect x="384" y="288" width="32" height="32"/>
    <rect x="352" y="160" width="32" height="32"/><rect x="352" y="320" width="32" height="32"/>
  </g>
  <!-- Left page (white pixels) -->
  <g fill="#e2e8f0">
    <rect x="128" y="192" width="32" height="32"/><rect x="128" y="224" width="32" height="32"/>
    <rect x="128" y="256" width="32" height="32"/><rect x="128" y="288" width="32" height="32"/>
    <rect x="160" y="160" width="32" height="32"/><rect x="160" y="192" width="32" height="32"/>
    <rect x="160" y="224" width="32" height="32"/><rect x="160" y="256" width="32" height="32"/>
    <rect x="160" y="288" width="32" height="32"/><rect x="160" y="320" width="32" height="32"/>
    <rect x="192" y="160" width="32" height="32"/><rect x="192" y="192" width="32" height="32"/>
    <rect x="192" y="224" width="32" height="32"/><rect x="192" y="256" width="32" height="32"/>
    <rect x="192" y="288" width="32" height="32"/><rect x="192" y="320" width="32" height="32"/>
    <rect x="224" y="160" width="32" height="32"/><rect x="224" y="192" width="32" height="32"/>
    <rect x="224" y="224" width="32" height="32"/><rect x="224" y="256" width="32" height="32"/>
    <rect x="224" y="288" width="32" height="32"/><rect x="224" y="320" width="32" height="32"/>
  </g>
  <!-- Right page -->
  <g fill="#f8fafc">
    <rect x="256" y="160" width="32" height="32"/><rect x="256" y="192" width="32" height="32"/>
    <rect x="256" y="224" width="32" height="32"/><rect x="256" y="256" width="32" height="32"/>
    <rect x="256" y="288" width="32" height="32"/><rect x="256" y="320" width="32" height="32"/>
    <rect x="288" y="160" width="32" height="32"/><rect x="288" y="192" width="32" height="32"/>
    <rect x="288" y="224" width="32" height="32"/><rect x="288" y="256" width="32" height="32"/>
    <rect x="288" y="288" width="32" height="32"/><rect x="288" y="320" width="32" height="32"/>
    <rect x="320" y="160" width="32" height="32"/><rect x="320" y="192" width="32" height="32"/>
    <rect x="320" y="224" width="32" height="32"/><rect x="320" y="256" width="32" height="32"/>
    <rect x="320" y="288" width="32" height="32"/><rect x="320" y="320" width="32" height="32"/>
    <rect x="352" y="192" width="32" height="32"/><rect x="352" y="224" width="32" height="32"/>
    <rect x="352" y="256" width="32" height="32"/><rect x="352" y="288" width="32" height="32"/>
  </g>
  <!-- Spine -->
  <rect x="240" y="160" width="32" height="192" fill="#6d28d9"/>
  <!-- Pixel text lines on pages -->
  <g fill="#c4b5fd" opacity="0.4">
    <rect x="168" y="200" width="48" height="4"/><rect x="168" y="214" width="36" height="4"/>
    <rect x="168" y="228" width="44" height="4"/><rect x="168" y="242" width="32" height="4"/>
    <rect x="270" y="200" width="44" height="4"/><rect x="270" y="214" width="38" height="4"/>
    <rect x="270" y="228" width="46" height="4"/><rect x="270" y="242" width="30" height="4"/>
  </g>
  <!-- Pixel star above book -->
  <g fill="#fbbf24">
    <rect x="240" y="96" width="32" height="32"/>
    <rect x="208" y="112" width="32" height="16"/><rect x="272" y="112" width="32" height="16"/>
    <rect x="240" y="128" width="32" height="16"/>
    <rect x="224" y="80" width="16" height="16"/><rect x="272" y="80" width="16" height="16"/>
  </g>
  <!-- Pixel sparkle particles -->
  <rect x="144" y="112" width="8" height="8" fill="#f472b6"/>
  <rect x="360" y="100" width="8" height="8" fill="#60a5fa"/>
  <rect x="120" y="350" width="8" height="8" fill="#10b981"/>
  <rect x="384" y="340" width="8" height="8" fill="#fbbf24"/>
  <!-- Bottom pixel text "SPELL" -->
  <text x="256" y="420" text-anchor="middle" font-family="'Courier New',monospace" font-size="48" font-weight="900" fill="#fbbf24" letter-spacing="8">SPELL</text>
  <text x="256" y="460" text-anchor="middle" font-family="'Courier New',monospace" font-size="24" font-weight="700" fill="#c4b5fd" letter-spacing="10" opacity="0.6">MASTER</text>
</svg>
